<svg width="2024" height="355" viewBox="0 0 2024 355" fill="none" xmlns="http://www.w3.org/2000/svg">
<path d="M2024 238.042C2024 238.042 1926.02 97.1288 1907.64 90.4844C1889.26 83.84 1877.02 83.4259 1860.69 83.4259C1844.36 83.4259 1687.54 99.2516 1672.62 87.1364C1657.71 75.0212 1591.96 82.563 1577.66 78.2312C1563.36 73.8994 1491.19 137.478 1466.69 143.139C1442.2 148.8 1385.05 172.944 1362.59 158.378C1340.12 143.812 1289.1 128.245 1274.74 128.245C1260.37 128.245 1176.74 140.516 1168.58 147.229C1160.41 153.943 1140 175.291 1111.42 179.502C1082.85 183.713 976.757 213.57 958.378 210.29C939.999 207.011 867.67 184.403 865.93 182.971C864.19 181.538 856.921 179.709 853.872 179.709C850.823 179.709 845.363 183.368 842.366 182.557C839.369 181.745 821.851 180.123 815.357 179.312C808.863 178.501 777.823 159.621 771.329 158.809C758.375 157.187 722.616 128.349 700.705 130.575C684.686 132.197 650.959 121.842 643.965 121.031C636.972 120.22 594.219 138.29 587.226 134.614C580.232 130.938 566.986 141.258 562.042 139.532C557.099 137.806 540.735 126.192 534.224 126.192C527.712 126.192 491.16 134.044 478.069 132.422C464.978 130.799 427.462 133.181 416.747 131.645C406.033 130.109 376.595 124.983 368.62 120.376C360.645 115.768 314.429 107.052 307.281 99.8901C300.133 92.728 256.57 48.7025 249.008 47.6843C241.446 46.666 224.738 48.4609 221.275 45.6305C217.813 42.8002 180.934 32.3245 177.144 29.2526C173.355 26.1806 119.784 14.3933 110.328 12.3396C100.871 10.2858 66.8339 9.78536 56.1026 7.16212C45.3713 4.53888 0 0 0 0V355H2009.89L2024 238.042Z" fill="#73002D"/>
<path d="M1257.67 86.3943C1256.63 84.4613 1249.54 85.8765 1248.92 86.912C1248.18 89.5952 1247.9 92.3846 1248.09 95.1614C1248.3 97.0943 1248.5 110.521 1248.5 114.387C1248.5 118.253 1242.04 117.355 1242.04 117.355C1241.62 115.23 1241.4 113.068 1241.41 110.901C1241.41 107.294 1242.66 68.9808 1242.66 64.2003C1242.66 59.4198 1239.96 59.4198 1237.03 59.4198C1234.1 59.4198 1230.57 61.6288 1230.78 63.4237C1230.98 65.2185 1230.16 77.351 1230.36 83.029C1230.57 88.7069 1230.98 107.812 1230.98 107.812C1225.58 108.312 1223.41 106.258 1223.41 104.446C1223.41 102.634 1223.7 90.8987 1223.7 88.1891C1223.73 87.5803 1223.61 86.9732 1223.37 86.4137C1223.13 85.8543 1222.77 85.3572 1222.31 84.9599C1221.84 84.5625 1221.3 84.2755 1220.71 84.1204C1220.12 83.9653 1219.51 83.9461 1218.91 84.0644C1217.74 84.1692 1216.65 84.6993 1215.84 85.5546C1215.04 86.4099 1214.57 87.5311 1214.53 88.7068C1214.53 90.8986 1213.69 102.91 1214.53 107.294C1215.38 111.677 1217.24 112.834 1219.7 113.093C1222.17 113.351 1232.21 112.575 1232.21 112.575L1232.62 138.894L1241.23 139.791L1240.82 123.413C1240.82 123.413 1254.05 121.29 1256.32 119.961C1258.6 118.632 1257.79 108.864 1258.2 103.963C1258.61 99.0618 1258.72 88.3272 1257.67 86.3943Z" fill="#73002D"/>
<path d="M583.247 132.905C579.078 130.886 568.071 127.227 568.071 127.227C573.374 127.435 578.635 128.263 583.746 129.695C580.259 126.069 576.573 122.641 572.705 119.426C577.408 121.88 581.958 124.618 586.33 127.624C582.368 119.426 572.808 107.242 572.808 107.242C579.157 112.821 584.757 119.202 589.465 126.226C587.742 117.442 579.629 91.0713 579.629 91.0713C584.797 100.529 592.41 122.999 592.41 122.999C591.725 113.867 591.673 104.698 592.255 95.5583C592.893 99.8038 595.907 125.139 595.907 125.139C596.898 119.205 598.592 113.412 600.954 107.881C600.064 112.763 599.426 117.688 599.042 122.636C601.867 115.733 610.755 104.602 610.755 104.602C607.262 111.468 604.145 118.519 601.419 125.726C612.667 117.528 622.382 116.682 622.382 116.682C615.148 119.323 604.761 128.608 604.761 128.608C610.337 127.03 616.106 126.24 621.9 126.261C616.206 127.724 610.641 129.651 605.26 132.025L595.976 138.928L587.363 135.804C578.751 134.562 573.066 134.337 573.066 134.337C576.369 133.352 579.801 132.87 583.247 132.905Z" fill="#73002D"/>
<path d="M1279.59 130.178C1277.58 128.452 1272.03 125.087 1272.03 125.087C1274.91 125.907 1277.68 127.066 1280.28 128.539C1278.85 126.094 1277.28 123.731 1275.58 121.463C1277.84 123.424 1279.97 125.522 1281.97 127.745C1280.74 123.315 1279.16 118.992 1277.23 114.818C1279.96 118.726 1282.16 122.973 1283.78 127.451C1283.97 122.429 1283 106.931 1283 106.931C1284.32 113.254 1285.26 119.652 1285.81 126.088C1286.61 120.998 1287.76 115.969 1289.26 111.039C1289.05 113.438 1287.38 127.693 1287.38 127.693C1288.7 124.58 1290.39 121.637 1292.41 118.926C1291.28 121.473 1290.29 124.077 1289.43 126.727C1292.05 123.652 1294.99 120.864 1298.2 118.408C1295.39 121.715 1292.76 125.171 1290.33 128.763C1294.3 126.986 1298.65 126.233 1302.99 126.571C1298.68 127.072 1291.77 130.782 1291.77 130.782C1295.03 130.654 1298.3 130.979 1301.47 131.749C1298.16 131.797 1294.87 132.12 1291.62 132.715L1285.62 135.269L1281.28 132.422C1276.77 130.696 1273.65 129.747 1273.65 129.747C1275.64 129.585 1277.65 129.73 1279.59 130.178Z" fill="#73002D"/>
<path d="M1149.84 162.882C1146.39 162.986 1137.78 164.194 1137.78 164.194C1141.62 162.759 1145.58 161.673 1149.61 160.949C1146.41 159.935 1143.15 159.105 1139.85 158.464C1143.63 158.442 1147.4 158.632 1151.16 159.034C1146.99 156.134 1142.55 153.648 1137.9 151.613C1143.26 152.779 1148.42 154.715 1153.23 157.36C1150.49 152.976 1140.19 140.602 1140.19 140.602C1145.56 144.364 1154.85 154.685 1154.85 154.685C1152.81 149.74 1151.24 144.615 1150.15 139.377C1151.32 141.569 1157.74 154.909 1157.74 154.909C1157.49 151.168 1157.77 147.409 1158.55 143.743C1158.71 146.703 1159.07 149.649 1159.62 152.562C1160.52 147.851 1165.15 139.014 1165.15 139.014C1163.77 143.789 1162.67 148.641 1161.86 153.546C1165.71 148.969 1170.39 145.153 1175.64 142.293C1170.78 145.918 1164.75 154.167 1164.75 154.167C1168.55 151.638 1172.59 149.504 1176.81 147.799C1172.92 150.278 1169.19 152.992 1165.63 155.927L1153.14 163.366C1146.7 165.195 1142.46 166.817 1142.46 166.817C1144.77 165.235 1147.24 163.915 1149.84 162.882Z" fill="#73002D"/>
<path d="M636.369 42.0926C637.57 42.1804 638.696 42.707 639.535 43.5725C640.373 44.4379 640.865 45.5819 640.917 46.7868C641.141 49.2547 640.693 70.3787 640.693 73.5887C640.693 76.7987 645.137 77.6962 645.137 77.6962C645.137 77.6962 645.464 50.3075 645.137 44.1118C644.81 37.9161 647.893 33.5844 652.888 34.1711C657.883 34.7579 660.622 39.849 660.622 45.2336C660.622 50.6181 659.658 93.6772 659.658 93.6772C662.569 92.9351 664.429 91.9514 664.429 89.2073C664.429 86.4633 664.205 66.7718 663.912 64.045C663.62 61.3182 664.205 57.6249 667.478 57.6939C670.751 57.763 672.404 61.2837 672.473 65.1667C672.542 69.0498 672.112 85.0999 670.165 91.7443C668.219 98.3886 659.158 99.7175 659.158 99.7175L656.781 128.728H649.443L645.654 83.6675C642.957 83.6035 640.359 82.6353 638.276 80.9176C636.193 79.2 634.746 76.8321 634.164 74.1928C633.579 71.3624 632.976 57.09 632.442 50.8943C631.908 44.6986 633.906 42.0926 636.369 42.0926Z" fill="#73002D"/>
<path d="M662.293 129.177L660.708 128.556C663.092 125.034 666.169 122.039 669.752 119.754C666.967 122.646 664.469 125.802 662.293 129.177Z" fill="#73002D"/>
<path d="M665.394 110.193C664.449 114.939 663.094 119.593 661.346 124.103C664.256 119.342 667.656 114.9 671.491 110.849C667.584 116.54 664.006 122.452 660.777 128.556L659.658 128.124L659.193 127.935L658.504 127.676C658.504 127.676 663.516 116.458 665.394 110.193Z" fill="#73002D"/>
<path d="M653.887 125.726C653.433 121.629 652.597 117.585 651.39 113.645C653.558 117.602 655.005 121.915 655.661 126.381L653.887 125.726Z" fill="#73002D"/>
<path d="M656.902 123.551C657.64 118.886 658.129 114.185 658.366 109.468C658.634 112.515 658.703 115.577 658.572 118.633C659.785 113.595 660.728 108.497 661.397 103.359C661.424 108.141 661.09 112.917 660.398 117.649C661.725 112.471 663.206 106.327 663.93 101.84C663.346 110.679 661.81 119.428 659.348 127.935L658.366 127.555L657.763 127.313L657.108 127.054L656.678 126.899L656.471 126.813L655.351 126.364C655.217 119.579 654.682 112.808 653.749 106.086C655.401 111.782 656.458 117.636 656.902 123.551Z" fill="#73002D"/>
<path d="M653.336 123.448L651.614 123.603C652.124 119.379 653.502 115.307 655.661 111.643C654.514 115.495 653.736 119.448 653.336 123.448Z" fill="#73002D"/>
<path d="M647.48 105.154C648.799 109.806 649.709 114.564 650.201 119.375C650.619 113.808 651.624 108.3 653.198 102.945C652.31 109.814 651.815 116.729 651.717 123.655L650.511 123.775H649.288C649.288 123.775 648.651 111.643 647.48 105.154Z" fill="#73002D"/>
<path d="M644.327 124.345C642.056 120.914 639.473 117.702 636.61 114.749C640.343 117.292 643.597 120.476 646.222 124.155L644.327 124.345Z" fill="#73002D"/>
<path d="M645.981 120.98C644.499 116.482 642.774 112.069 640.813 107.76C642.442 110.353 643.898 113.051 645.171 115.837C643.961 110.795 642.478 105.823 640.727 100.943C642.932 105.188 644.809 109.596 646.343 114.128C645.189 108.951 643.707 102.755 642.295 98.4405C645.801 106.571 648.412 115.06 650.08 123.758L649.03 123.862H647.014L645.809 123.983C642.602 118.025 639.047 112.263 635.163 106.724C639.261 111.08 642.888 115.859 645.981 120.98Z" fill="#73002D"/>
<path d="M1233.93 138.548L1232.21 138.704C1232.73 134.481 1234.1 130.411 1236.26 126.744C1235.1 130.595 1234.33 134.548 1233.93 138.548Z" fill="#73002D"/>
<path d="M1228.11 120.255C1229.43 124.906 1230.34 129.665 1230.83 134.475C1231.25 128.908 1232.25 123.401 1233.83 118.046C1232.94 124.915 1232.44 131.83 1232.35 138.755L1231.14 138.876H1229.92C1229.92 138.876 1229.28 126.744 1228.11 120.255Z" fill="#73002D"/>
<path d="M1224.96 139.532C1222.68 136.102 1220.1 132.889 1217.24 129.937C1220.98 132.473 1224.23 135.659 1226.85 139.342L1224.96 139.532Z" fill="#73002D"/>
<path d="M1226.61 136.08C1225.13 131.583 1223.4 127.17 1221.44 122.861C1223.07 125.449 1224.52 128.141 1225.8 130.92C1224.58 125.887 1223.11 120.922 1221.37 116.044C1223.57 120.292 1225.44 124.699 1226.97 129.229C1225.82 124.052 1224.34 117.856 1222.92 113.541C1226.43 121.672 1229.04 130.161 1230.71 138.859L1229.66 138.963H1227.64L1226.44 139.083C1223.23 133.126 1219.68 127.363 1215.79 121.825C1219.89 126.181 1223.52 130.959 1226.61 136.08Z" fill="#73002D"/>
<path d="M1311.43 141.258L1309.93 140.464C1312.67 137.221 1316.06 134.578 1319.87 132.698C1316.79 135.275 1313.96 138.141 1311.43 141.258Z" fill="#73002D"/>
<path d="M1316.59 122.792C1315.15 127.41 1313.3 131.892 1311.06 136.184C1314.48 131.768 1318.34 127.72 1322.59 124.103C1318.08 129.338 1313.88 134.829 1310.01 140.55L1308.96 139.998L1308.52 139.756L1307.86 139.411C1307.86 139.411 1314.01 128.867 1316.59 122.792Z" fill="#73002D"/>
<path d="M1303.43 137.099C1303.42 132.986 1303.02 128.884 1302.25 124.845C1303.98 129.015 1304.96 133.464 1305.12 137.979L1303.43 137.099Z" fill="#73002D"/>
<path d="M1306.67 135.2C1307.91 130.654 1308.9 126.045 1309.65 121.394C1309.59 124.45 1309.33 127.5 1308.88 130.523C1310.61 125.645 1312.1 120.679 1313.32 115.647C1312.83 120.405 1311.98 125.119 1310.77 129.747C1312.67 124.776 1314.8 118.788 1315.94 114.422C1314.41 123.144 1311.94 131.674 1308.57 139.86L1307.64 139.36L1307.07 139.066L1306.45 138.738L1306.03 138.514L1305.83 138.41L1304.76 137.858C1305.36 131.099 1305.56 124.311 1305.36 117.528C1306.41 123.358 1306.85 129.28 1306.67 135.2Z" fill="#73002D"/>
<path d="M314.326 108.07L312.38 107.259C315.432 102.928 319.343 99.2733 323.869 96.5248C320.332 100.063 317.137 103.929 314.326 108.07Z" fill="#73002D"/>
<path d="M318.719 84.5649C317.429 90.4646 315.625 96.2395 313.327 101.823C317.07 95.9583 321.417 90.5035 326.298 85.5486C321.292 92.544 316.691 99.8217 312.518 107.346L311.139 106.776L310.571 106.535L309.71 106.172C309.71 106.172 316.186 92.3656 318.719 84.5649Z" fill="#73002D"/>
<path d="M303.957 103.756C303.483 98.6527 302.543 93.6037 301.149 88.6724C303.75 93.6654 305.441 99.0828 306.144 104.671L303.957 103.756Z" fill="#73002D"/>
<path d="M307.746 101.046C308.799 95.252 309.535 89.4043 309.951 83.5294C310.2 87.3336 310.2 91.1501 309.951 94.9543C311.59 88.7004 312.895 82.3634 313.861 75.9704C313.771 81.9282 313.23 87.8705 312.242 93.7463C313.964 87.3607 316.031 79.7154 317.048 74.141C316.1 85.1325 313.963 95.9883 310.674 106.517L309.469 106.017L308.728 105.706H308.625L307.815 105.361L307.281 105.137L307.109 105.016L305.714 104.446C305.704 95.9841 305.192 87.5299 304.18 79.1286C306.134 86.2888 307.329 93.6353 307.746 101.046Z" fill="#73002D"/>
<path d="M862.795 184.835H860.969C861.957 180.369 863.845 176.153 866.516 172.443C864.881 176.445 863.635 180.594 862.795 184.835Z" fill="#73002D"/>
<path d="M858.42 164.677C859.369 169.801 859.865 174.999 859.901 180.21C860.914 174.303 862.542 168.518 864.759 162.951C863.117 170.193 861.892 177.522 861.09 184.904H858.471C858.471 184.904 859.023 171.736 858.42 164.677Z" fill="#73002D"/>
<path d="M853.149 184.887C851.068 180.991 848.628 177.299 845.863 173.859C849.601 176.947 852.758 180.682 855.181 184.887H853.149Z" fill="#73002D"/>
<path d="M855.216 181.452C854.113 176.502 852.739 171.616 851.099 166.817C852.579 169.751 853.868 172.777 854.957 175.878C854.161 170.37 853.075 164.909 851.702 159.517C853.631 164.274 855.192 169.172 856.37 174.169C855.664 168.509 854.647 161.743 853.631 156.997C856.552 166.047 858.486 175.386 859.402 184.852H854.699C851.879 178.129 848.658 171.582 845.053 165.247C849.004 170.272 852.411 175.705 855.216 181.452Z" fill="#73002D"/>
<path d="M1076.08 142.104C1076.34 138.1 1076.08 111.85 1076.08 106.448C1076.08 101.046 1077.96 100.667 1079.09 100.667C1080.23 100.667 1082.43 101.927 1082.43 105.447C1082.43 108.968 1082.73 133.198 1082.43 137.22C1082.14 141.241 1083.19 143.743 1085.07 143.743C1086.95 143.743 1088.51 140.723 1088.82 135.338C1089.13 129.954 1090.2 78.1967 1090.2 71.1554C1090.2 64.1141 1092.72 64.1313 1094.35 64.511C1095.99 64.8907 1097.35 67.0134 1097.35 70.0336C1097.35 73.0538 1096.61 119.375 1096.61 126.157C1096.61 132.94 1097.11 135.459 1099.73 135.2C1102.35 134.941 1102.86 130.679 1102.86 128.176C1102.86 125.674 1102.86 49.0995 1103 43.8185C1103.14 38.5375 1107.26 39.2968 1108.17 40.8155C1109.08 42.3342 1109.17 47.7188 1108.93 57.763C1108.69 67.8073 1108.41 132.059 1107.91 135.08C1107.41 138.1 1108.98 144.554 1109.93 145.434C1110.87 146.315 1112.8 144.934 1112.8 141.172C1112.8 137.409 1113.3 89.2937 1113.44 84.9101C1113.58 80.5265 1118.61 81.2686 1119.45 82.6493C1120.3 84.03 1120.71 85.911 1120.71 92.6935C1120.71 99.4759 1119.88 137.03 1119.88 144.468C1119.88 151.906 1118.35 152.165 1116.04 154.478C1113.73 156.79 1108.86 155.513 1106.55 158.343C1104.24 161.174 1103.98 186.336 1103.98 193.257L1091.25 192.256C1091.25 192.256 1092.37 152.942 1091.25 151.44C1090.13 149.939 1084.36 150.439 1081.47 150.439C1078.58 150.439 1075.84 146.125 1076.08 142.104Z" fill="#73002D"/>
</svg>
