<svg width="1728" height="564" viewBox="0 0 1728 564" fill="none" xmlns="http://www.w3.org/2000/svg">
<path d="M793.621 292.136C794.678 281.1 802.517 278.64 805.368 283.56C808.219 288.48 809.966 294.182 808.563 304.39C807.161 314.598 807.138 328.898 809.644 333.818C812.15 338.738 827.437 343.612 827.437 343.612C827.437 343.612 828.862 316.23 829.575 299.93C830.287 283.629 842.747 272.157 853.782 278.296C864.816 284.434 867.575 304.436 865.529 317.104C863.483 329.772 859.483 360.004 859.483 360.004C863.046 362.855 874.425 357.544 876.219 351.429C878.012 345.313 878.701 326.898 879.782 319.954C880.862 313.011 885.115 307.287 888.311 307.701C891.506 308.114 896.862 314.23 896.862 318.736C896.862 323.242 893.299 357.958 892.586 364.096C891.874 370.235 879.414 382.88 871.897 384.512C865.662 385.549 859.34 385.965 853.023 385.754L846.609 447.023L830.196 447.322L824.609 358.372C817.805 357.904 811.265 355.553 805.72 351.583C800.175 347.612 795.842 342.178 793.207 335.887C791.805 332.576 792.54 303.171 793.621 292.136Z" fill="#3B0017"/>
<path d="M1435.25 302.827C1436.75 298.228 1446.75 301.562 1447.74 304.068C1448.8 310.679 1449.2 317.379 1448.93 324.07C1448.63 328.783 1448.33 361.292 1448.33 370.672C1448.33 380.052 1457.53 377.868 1457.53 377.868C1458.12 372.677 1458.41 367.458 1458.4 362.234C1458.4 353.475 1456.63 260.593 1456.63 249.029C1456.63 237.464 1460.49 237.533 1464.66 237.533C1467.03 237.878 1469.22 239.031 1470.84 240.798C1472.46 242.566 1473.43 244.839 1473.57 247.235C1473.28 251.604 1474.47 281.009 1474.17 294.757C1473.87 308.505 1473.28 354.785 1473.28 354.785C1481 356.05 1484.08 351.038 1484.08 346.67C1484.08 342.301 1483.67 313.839 1483.67 307.264C1483.67 300.688 1486.66 296.32 1490.56 297.263C1494.47 298.205 1496.79 303.194 1496.79 308.505C1496.79 313.816 1497.99 342.991 1496.79 353.544C1495.6 364.096 1492.93 366.993 1489.37 367.614C1485.8 368.235 1471.53 366.373 1471.53 366.373L1470.93 430.148L1458.75 432.333L1459.34 392.628C1459.34 392.628 1440.47 387.478 1437.37 384.19C1434.26 380.903 1435.28 357.291 1434.68 345.405C1434.08 333.519 1433.78 307.517 1435.25 302.827Z" fill="#3B0017"/>
<path d="M213.644 287.63C215.575 282.549 228.701 286.273 229.736 288.963C230.77 291.653 231.667 305.516 231.276 310.574C230.885 315.632 230.517 350.785 230.517 360.901C230.517 371.017 242.471 368.672 242.471 368.672C243.242 363.08 243.626 357.441 243.621 351.797C243.621 342.324 241.322 242.04 241.322 229.533C241.322 217.026 246.333 217.026 251.736 217.026C257.138 217.026 263.69 222.773 263.23 227.509C262.77 232.245 264.379 263.972 263.989 278.847C263.598 293.722 262.839 343.681 262.839 343.681C272.862 345.037 276.885 339.634 276.885 334.898C276.885 330.162 276.333 299.447 276.333 292.343C276.333 285.239 280.195 280.526 285.207 281.537C290.218 282.549 293.322 287.952 293.322 293.699C293.322 299.447 294.862 330.852 293.322 342.324C291.782 353.797 288.31 356.854 283.667 357.521C279.023 358.188 260.517 356.188 260.517 356.188L259.759 425.159L243.943 427.458L244.908 384.558C244.908 384.558 220.402 378.994 216.356 375.362C212.31 371.729 213.644 346.325 212.885 333.473C212.126 320.621 211.736 292.596 213.644 287.63Z" fill="#3B0017"/>
<path d="M1333.64 438.448C1324.45 433.643 1299.8 424.033 1299.8 424.033C1312.09 425.795 1324.19 428.721 1335.92 432.769C1332.2 427.527 1313.51 411.135 1313.51 411.135C1323.6 416.768 1333.38 422.97 1342.77 429.712C1336.33 413.756 1318.08 389.087 1318.08 389.087C1330.74 400.499 1341.71 413.659 1350.66 428.171C1349.62 411.802 1339.87 361.774 1339.87 361.774C1348.79 380.351 1358.77 423.159 1358.77 423.159C1360.01 401.755 1368.1 373.339 1368.1 373.339C1368.1 381.224 1366.24 427.964 1366.24 427.964C1371 414.423 1384.29 398.077 1384.29 398.077C1381.18 403.112 1374.54 424.286 1374.54 424.286C1383.74 412.492 1408.59 394.812 1408.59 394.812C1396.95 406.169 1379.11 430.401 1379.11 430.401C1408.59 418.607 1431.83 419.711 1431.83 419.711C1413.78 422.539 1385.97 436.517 1385.97 436.517C1399.73 435.173 1413.61 435.32 1427.35 436.954C1412.59 437.39 1385.97 442.862 1385.97 442.862L1342.15 444.839C1322.43 440.241 1308.93 438.264 1308.93 438.264C1317.15 437.367 1325.44 437.428 1333.64 438.448Z" fill="#3B0017"/>
<path d="M1450.45 419.757C1446.43 417.642 1435.55 413.411 1435.55 413.411C1440.96 414.202 1446.29 415.495 1451.46 417.274C1448.35 413.91 1445.05 410.732 1441.57 407.756C1446.03 410.228 1450.33 412.953 1454.47 415.917C1451.41 409.63 1447.77 403.642 1443.6 398.031C1449.17 403.066 1454 408.863 1457.94 415.251C1457.48 408.032 1453.18 386.007 1453.18 386.007C1457.12 394.191 1461.51 413.043 1461.51 413.043C1462.22 405.625 1463.6 398.285 1465.62 391.11C1465.62 394.559 1464.79 415.159 1464.79 415.159C1466.82 410.419 1469.5 405.986 1472.75 401.985C1471.07 405.72 1469.63 409.559 1468.45 413.48C1472.47 408.284 1483.44 400.491 1483.44 400.491C1478.8 405.448 1474.47 410.685 1470.47 416.17C1477.83 413.139 1485.71 411.577 1493.67 411.572C1485.74 412.814 1473.48 418.975 1473.48 418.975C1479.53 418.383 1485.63 418.445 1491.67 419.159C1485.56 419.645 1479.48 420.513 1473.48 421.757L1454.2 422.63C1445.51 420.607 1439.57 419.734 1439.57 419.734C1443.19 419.323 1446.84 419.331 1450.45 419.757Z" fill="#3B0017"/>
<path d="M1524.56 419.941C1518.1 416.147 1500.84 408.859 1500.84 408.859C1509.37 409.879 1517.76 411.893 1525.83 414.86C1523 410.445 1509.46 396.996 1509.46 396.996C1516.72 401.52 1523.68 406.496 1530.31 411.894C1525.14 398.352 1511.34 377.523 1511.34 377.523C1520.81 387.304 1528.95 398.288 1535.55 410.193C1533.97 395.938 1524.72 352.716 1524.72 352.716C1531.76 368.534 1540.82 405.457 1540.82 405.457C1541.03 390.75 1542.27 376.076 1544.54 361.544C1544.95 368.442 1546.15 409.319 1546.15 409.319C1548.68 397.272 1556.84 382.374 1556.84 382.374C1555 386.972 1551.6 405.709 1551.6 405.709C1557.18 394.996 1573.16 378.42 1573.16 378.42C1565.87 388.857 1555.02 410.836 1555.02 410.836C1574.4 399.203 1590.26 399.111 1590.26 399.111C1578.15 402.399 1559.99 415.871 1559.99 415.871C1569.23 414.084 1578.68 413.581 1588.06 414.377C1578.01 415.411 1560.31 421.343 1560.31 421.343L1530.68 425.022C1517.05 421.918 1507.69 420.814 1507.69 420.814C1513.24 419.673 1518.93 419.379 1524.56 419.941Z" fill="#3B0017"/>
<path d="M1567.48 406.836C1563.09 401.433 1550.43 389.156 1550.43 389.156C1557.5 393.321 1564.13 398.189 1570.22 403.686C1569.21 399.272 1561.8 383.845 1561.8 383.845C1566.61 390.066 1571.06 396.561 1575.12 403.295C1575.12 391.087 1569.85 370.189 1569.85 370.189C1574.84 380.964 1578.36 392.362 1580.31 404.077C1583.6 392.858 1589.67 357.084 1589.67 357.084C1590.63 371.637 1586.43 402.652 1586.43 402.652C1591.41 391.83 1597.29 381.448 1604.01 371.614C1602.13 376.856 1589.8 407.664 1589.8 407.664C1595.94 399.755 1607.92 392.007 1607.92 392.007C1604.82 394.605 1595.71 407.181 1595.71 407.181C1604.08 401.479 1623.41 395.686 1623.41 395.686C1614.29 400.723 1605.48 406.304 1597.02 412.4C1608.78 411.77 1620.53 413.651 1631.51 417.917C1619.87 415.48 1599.67 418.147 1599.67 418.147C1608.34 420.539 1616.71 423.926 1624.61 428.24C1615.94 425.636 1607.1 423.639 1598.15 422.263L1571.11 413.066C1560.26 405.273 1552.56 400.697 1552.56 400.697C1557.78 402.101 1562.79 404.164 1567.48 406.836Z" fill="#3B0017"/>
<path d="M816.356 443.506C809.184 440.931 790.104 436.425 790.104 436.425C799.301 436.45 808.476 437.343 817.506 439.092C814.241 435.62 798.954 425.527 798.954 425.527C806.914 428.609 814.69 432.147 822.241 436.126C816.011 425.067 800.242 408.813 800.242 408.813C810.599 415.88 819.889 424.396 827.828 434.103C825.529 422.171 813.644 386.374 813.644 386.374C821.943 399.111 833.322 429.574 833.322 429.574C832.218 413.687 835.621 391.961 835.621 391.961C836.356 397.732 839.391 432.333 839.391 432.333C841.69 421.849 849.851 408.422 849.851 408.422C848.035 412.446 845.138 428.723 845.138 428.723C850.747 419.09 867.414 403.433 867.414 403.433C859.92 412.997 849.023 432.7 849.023 432.7C860.629 425.839 873.456 421.295 886.793 419.32C873.782 423.297 854.609 436.494 854.609 436.494C864.581 434.067 874.786 432.726 885.046 432.493C874.912 434.742 864.93 437.629 855.161 441.138L823.115 447.161C808.172 445.851 798.057 445.805 798.057 445.805C804.047 444.331 810.188 443.56 816.356 443.506Z" fill="#3B0017"/>
<path d="M383.23 450.656C376.816 446.426 359.207 437.459 359.207 437.459C368.176 439.691 376.913 442.77 385.299 446.656C383 442.494 370.218 428.976 370.218 428.976C377.303 433.897 384.104 439.217 390.586 444.908C386.908 432.631 375.092 413.02 375.092 413.02C383.67 422.399 390.883 432.94 396.517 444.334C396.862 432.172 393.046 394.467 393.046 394.467C398.379 408.859 402.839 441.23 402.839 441.23C405.138 425.527 413.115 405.135 413.115 405.135C412.586 410.951 408.034 445.345 408.034 445.345C412.471 435.712 423.414 424.654 423.414 424.654C420.77 428.125 414.425 443.276 414.425 443.276C421.966 435.252 441.575 424.056 441.575 424.056C432.218 431.574 417.368 448.15 417.368 448.15C430.216 444.251 443.704 442.908 457.069 444.196C443.529 444.931 422.034 453.185 422.034 453.185C432.289 453.224 442.51 454.373 452.517 456.611C442.195 456.369 431.868 456.784 421.598 457.852L389.092 456.013C374.839 451.139 365 448.679 365 448.679C371.133 448.623 377.251 449.286 383.23 450.656Z" fill="#3B0017"/>
<path d="M260.632 410.629C254.264 406.284 236.77 397.088 236.77 397.088C245.71 399.444 254.408 402.638 262.747 406.629C260.448 402.445 247.874 388.742 247.874 388.742C254.9 393.763 261.638 399.174 268.057 404.951C264.54 392.628 252.954 372.764 252.954 372.764C261.416 382.269 268.497 392.918 273.988 404.399C274.494 392.237 271.161 354.486 271.161 354.486C276.31 368.948 280.356 401.387 280.356 401.387C282.931 385.708 291.092 365.453 291.092 365.453C290.471 371.247 285.483 405.572 285.483 405.572C290.08 395.984 301.138 385.041 301.138 385.041C298.448 388.489 291.943 403.548 291.943 403.548C299.598 395.617 319.345 384.696 319.345 384.696C309.897 392.099 294.839 408.445 294.839 408.445C307.737 404.797 321.225 403.712 334.54 405.25C321 405.801 299.391 413.733 299.391 413.733C309.612 413.898 319.785 415.162 329.736 417.504C319.415 417.113 309.08 417.382 298.793 418.308L266.333 416.009C252.126 410.928 242.333 408.33 242.333 408.33C248.502 408.379 254.643 409.151 260.632 410.629Z" fill="#3B0017"/>
<path d="M220.885 415.871C216.081 413.733 203.161 409.641 203.161 409.641C209.488 410.129 215.754 411.223 221.874 412.905C218.039 409.24 213.994 405.8 209.759 402.606C215.093 405.135 220.275 407.975 225.276 411.112C221.506 403.18 211.483 391.179 211.483 391.179C218.301 396.586 224.309 402.942 229.322 410.055C228.287 401.732 221.782 376.488 221.782 376.488C226.908 385.685 233.276 407.227 233.276 407.227C233.589 398.555 234.682 389.93 236.54 381.454C236.77 385.478 237.23 409.411 237.23 409.411C239.273 403.764 242.073 398.42 245.552 393.524C243.869 398.03 242.471 402.637 241.368 407.319C245.69 400.973 257.874 391.087 257.874 391.087C252.836 397.202 248.169 403.613 243.897 410.285C252.202 406.135 261.236 403.644 270.494 402.951C261.299 404.997 247.506 413.089 247.506 413.089C254.485 411.941 261.568 411.548 268.632 411.917C261.564 412.938 254.569 414.413 247.69 416.331L225.391 418.814C215.161 417.136 208.218 416.515 208.218 416.515C212.401 415.804 216.652 415.588 220.885 415.871Z" fill="#3B0017"/>
<path d="M-64.4483 316.92C-48.3563 321.518 12.4713 335.519 31.6897 337.083C50.9081 338.646 118.218 347.911 132.655 347.911C147.092 347.911 183.943 397.525 199.966 406.813C215.989 416.101 307.322 409.917 324.954 416.124C342.586 422.332 360.218 440.908 393.92 450.219C427.621 459.53 567 459.415 656.747 457.967C746.494 456.519 953.299 417.665 982.057 409.917C1010.82 402.169 1034.93 386.512 1057.37 391.156C1079.8 395.801 1273.71 433.16 1294.54 436.264C1315.37 439.368 1464.4 417.665 1477.23 417.665H1558.95C1576.59 417.665 1699.97 397.525 1733.67 391.317C1767.37 385.11 1817 347.911 1817 347.911L1812.2 568H-151V320.024C-151 320.024 -80.4713 312.276 -64.4483 316.92Z" fill="#3B0017"/>
<path d="M1503.09 288.113C1503.76 276.801 1503.09 203.047 1503.09 187.782C1503.09 172.516 1508.13 171.527 1511.14 171.527C1514.15 171.527 1520.1 175.068 1520.1 184.954C1520.1 194.84 1520.89 263.122 1520.1 274.341C1519.32 285.561 1522.13 292.734 1527.16 292.734C1532.2 292.734 1536.56 284.25 1537.23 269.053C1537.9 253.857 1540.93 108.303 1540.93 88.5314C1540.93 68.7595 1547.64 68.7365 1552.01 69.7941C1556.38 70.8516 1560.06 76.8752 1560.06 85.3357C1560.06 93.7962 1558.06 224.199 1558.06 243.281C1558.06 262.363 1559.39 269.421 1566.45 268.708C1573.51 267.996 1574.84 255.995 1574.84 248.914C1574.84 241.833 1574.84 26.4568 1575.18 11.6049C1575.53 -3.24699 1586.68 -1.10888 1588.98 3.12139C1591.28 7.35166 1591.67 22.5714 1591 50.8268C1590.33 79.0822 1589.67 259.88 1588.31 268.364C1586.95 276.847 1591.16 295.033 1593.69 297.677C1596.22 300.321 1601.41 296.274 1601.41 285.676C1601.41 275.077 1602.75 139.754 1603.09 127.385C1603.44 115.017 1616.89 117.132 1619.18 121.04C1621.48 124.948 1622.54 130.236 1622.54 149.296C1622.54 168.355 1620.36 274.065 1620.36 295.01C1620.36 315.954 1616.22 316.69 1610.06 323.196C1603.9 329.702 1590.82 326.093 1584.66 334.025C1578.49 341.956 1577.76 412.79 1577.76 432.286L1543.62 429.459C1543.62 429.459 1546.63 318.874 1543.62 314.644C1540.61 310.413 1525.23 311.816 1517.44 311.816C1509.64 311.816 1502.4 299.493 1503.09 288.113Z" fill="#3B0017"/>
<path d="M91.2529 83.3815C98.4943 83.3815 103.989 91.0144 104.655 99.4749C105.322 107.935 103.989 179.942 103.989 190.817C103.989 201.691 117.138 204.818 117.138 204.818C117.138 204.818 118.08 111.43 117.138 90.3247C116.195 69.2193 125.276 54.4364 140.012 56.4825C154.747 58.5287 163 75.8176 163 94.1411C163 112.465 160.08 259.259 160.08 259.259C168.655 256.707 174.149 253.397 174.149 243.994C174.149 234.591 173.506 167.665 172.609 158.239C171.713 148.813 173.506 136.375 183.184 136.628C192.862 136.881 197.69 148.836 197.92 162.055C198.149 175.275 196.816 229.992 191.023 252.638C185.23 275.284 158.517 279.836 158.517 279.836L151.322 378.695H129.736L118.517 225.141C94.977 223.624 86.3333 202.496 84.6552 192.817C82.977 183.138 81.115 134.559 79.3678 113.453C77.6207 92.3478 83.9885 83.3815 91.2529 83.3815Z" fill="#3B0017"/>
<path d="M131.897 349.451L125.92 350.371C126.77 326.99 138.494 304.873 138.494 304.873C133.575 320.874 131.897 349.451 131.897 349.451Z" fill="#3B0017"/>
<path d="M108.287 281.882C113.741 299.144 117.74 316.831 120.241 334.76C120.875 313.852 123.586 293.058 128.333 272.686C125 300.275 126.287 350.325 126.287 350.325L122.035 350.969L120.287 351.245L117.667 351.636C117.667 351.636 113.483 305.999 108.287 281.882Z" fill="#3B0017"/>
<path d="M100.057 354.303C100.057 354.303 84.1264 331.312 71.046 319.656C71.046 319.656 94.2644 334.347 106.77 353.291L100.057 354.303Z" fill="#3B0017"/>
<path d="M105.414 341.428C99.5354 324.861 92.7905 308.615 85.2069 292.757C91.409 302.23 97.0138 312.082 101.989 322.254C96.8435 303.642 90.7591 285.302 83.7586 267.306C92.3122 282.831 99.7041 298.969 105.874 315.586C100.954 296.343 94.6782 273.445 89 257.512C102.811 287.502 113.444 318.856 120.724 351.061L117.023 351.636L114.724 351.98H114.402L111.92 352.348L110.287 352.601H109.506L105.23 353.268C105.23 353.268 81.7356 312.023 64.5862 290.297C79.9461 305.865 93.6302 323.003 105.414 341.428Z" fill="#3B0017"/>
<path d="M934.862 443.322L929.23 441.023C940.931 421.159 961.529 408.031 961.529 408.031C949.713 419.343 934.862 443.322 934.862 443.322Z" fill="#3B0017"/>
<path d="M946.058 372.304C942.716 390.067 937.887 407.517 931.621 424.47C941.932 406.681 954.058 390.008 967.805 374.718C951.966 396.95 929.575 441.138 929.575 441.138L923.943 438.839L921.46 437.804C921.46 437.804 939.253 396.053 946.058 372.304Z" fill="#3B0017"/>
<path d="M904.885 430.976C904.885 430.976 901.828 402.744 895.943 385.777C895.943 385.777 909.23 410.629 911.207 433.574L904.885 430.976Z" fill="#3B0017"/>
<path d="M915.598 422.585C918.267 405.061 920.024 387.412 920.862 369.706C921.822 381.175 922.076 392.692 921.621 404.192C925.923 385.274 929.276 366.153 931.667 346.9C931.772 364.827 930.573 382.737 928.081 400.491C932.839 381.178 938.15 358.027 940.701 341.198C938.633 374.289 933.156 407.079 924.357 439.046L920.839 437.597L918.701 436.724L918.403 436.609L916.104 435.643L914.563 434.999L913.828 434.701L909.805 433.045C909.805 433.045 908.839 384.765 904.104 356.992C910.115 378.418 913.965 400.392 915.598 422.585Z" fill="#3B0017"/>
<path d="M165.345 394.145L160.103 390.949C174.586 373.201 196.885 363.568 196.885 363.568C183.529 372.856 165.345 394.145 165.345 394.145Z" fill="#3B0017"/>
<path d="M186.77 325.794C180.882 342.785 173.561 359.244 164.885 374.994C177.673 359.096 192.089 344.579 207.897 331.68C188.977 351.084 160.425 391.156 160.425 391.156L156.701 388.857L155.184 387.915L152.885 386.512C152.885 386.512 176.586 348.072 186.77 325.794Z" fill="#3B0017"/>
<path d="M137.529 377.132C137.529 377.132 138.632 348.716 135.23 331.013C135.23 331.013 144.747 357.705 143.345 380.719L137.529 377.132Z" fill="#3B0017"/>
<path d="M149.345 370.534C154.537 353.658 158.841 336.522 162.241 319.196C161.531 330.638 160.11 342.025 157.989 353.291C164.992 335.286 171.084 316.939 176.241 298.32C173.743 316.03 169.955 333.534 164.908 350.693C172.425 332.3 181 310.345 186.012 294.136C179.167 326.459 168.974 357.98 155.598 388.191L152.333 386.19L150.356 384.972L150.08 384.811L147.92 383.478L146.494 382.604L145.828 382.259L142.081 379.96C142.081 379.96 148.195 332.094 147.529 303.907C150.362 325.999 150.97 348.32 149.345 370.534Z" fill="#3B0017"/>
</svg>
