<svg width="322" height="70" viewBox="0 0 322 70" fill="none" xmlns="http://www.w3.org/2000/svg">
<path opacity="0.6" d="M0.171631 69.4826H321.71C321.71 69.4826 313.14 67.5659 306.414 65.9606C294.302 63.0855 299.377 45.14 274.172 53.981C270.589 49.1231 265.439 45.6539 259.594 44.1607C253.749 42.6674 247.568 43.2419 242.097 45.7869C242.759 41.6289 241.973 37.3694 239.869 33.723C237.766 30.0765 234.474 27.2647 230.546 25.7593C226.618 24.2538 222.292 24.1462 218.293 25.4545C214.295 26.7627 210.868 29.4073 208.586 32.9447C208.814 26.6054 207.102 20.3476 203.68 15.0084C200.258 9.66925 195.289 5.50321 189.437 3.0675C168.445 -6.2287 152.288 9.05733 148.314 15.2388C148.314 15.2388 137.926 -2.22748 111.811 3.73838C85.6965 9.70424 88.8322 39.1502 88.8322 39.1502C88.8322 39.1502 79.09 28.7519 67.6006 36.4907C55.0579 44.9244 63.1723 58.4135 63.1723 58.4135C63.1723 58.4135 39.9779 61.5521 0.171631 69.4826Z" fill="url(#paint0_linear_6_553)"/>
<defs>
<linearGradient id="paint0_linear_6_553" x1="160.953" y1="69.4826" x2="160.953" y2="0.144476" gradientUnits="userSpaceOnUse">
<stop stop-color="white" stop-opacity="0"/>
<stop offset="0.06" stop-color="white" stop-opacity="0.08"/>
<stop offset="0.33" stop-color="white" stop-opacity="0.4"/>
<stop offset="0.57" stop-color="white" stop-opacity="0.66"/>
<stop offset="0.76" stop-color="white" stop-opacity="0.84"/>
<stop offset="0.91" stop-color="white" stop-opacity="0.96"/>
<stop offset="1" stop-color="white"/>
</linearGradient>
</defs>
</svg>
