<svg width="1728" height="278" viewBox="0 0 1728 278" fill="none" xmlns="http://www.w3.org/2000/svg">
<path d="M1765.02 14.1701V277.984H-25L6.26647 -3.69778C6.26647 -3.69778 88.3489 1.70461 115.71 16.062C143.07 30.4193 188.017 30.4194 209.509 30.4194C231.001 30.4194 289.839 41.6445 307.32 31.5545C324.8 21.4644 381.464 10.6806 410.767 10.6806C440.07 10.6806 518.247 19.6566 533.87 26.8247C549.492 33.9929 557.325 50.1791 606.177 64.5364C655.03 78.8938 713.678 106.326 725.395 101.491C737.112 96.6566 852.425 68.4884 891.502 74.5214C930.58 80.5545 963.81 102.122 985.217 98.5695C1006.62 95.0169 1051.66 112.948 1080.98 103.972C1110.3 94.9959 1182.59 80.9959 1196.27 74.5425C1209.95 68.089 1254.9 64.4734 1280.3 59.092C1305.69 53.7106 1407.33 35.7586 1415.14 24.9749C1422.95 14.1911 1430.76 5.44637 1444.44 3.53346C1458.12 1.62055 1454.21 1.64157 1475.71 -3.76084C1497.2 -9.16324 1518.71 -19.926 1530.43 -14.5236C1542.14 -9.12119 1546.77 1.62054 1582.57 -3.76084C1618.38 -9.14222 1639.87 -10.929 1669.13 -5.54764C1698.39 -0.166256 1765.02 14.1701 1765.02 14.1701Z" fill="url(#paint0_linear_6_581)"/>
<defs>
<linearGradient id="paint0_linear_6_581" x1="870.201" y1="251.581" x2="869.845" y2="61.2782" gradientUnits="userSpaceOnUse">
<stop stop-color="#FFFFB0"/>
<stop offset="0.07" stop-color="#FFFCB7" stop-opacity="0.84"/>
<stop offset="0.16" stop-color="#FFF9BF" stop-opacity="0.65"/>
<stop offset="0.26" stop-color="#FFF6C7" stop-opacity="0.47"/>
<stop offset="0.37" stop-color="#FFF3CD" stop-opacity="0.33"/>
<stop offset="0.47" stop-color="#FFF1D2" stop-opacity="0.21"/>
<stop offset="0.58" stop-color="#FFEFD6" stop-opacity="0.12"/>
<stop offset="0.7" stop-color="#FFEED9" stop-opacity="0.05"/>
<stop offset="0.83" stop-color="#FFEDDA" stop-opacity="0.01"/>
<stop offset="1" stop-color="#FFEDDB" stop-opacity="0"/>
</linearGradient>
</defs>
</svg>
