<svg width="1968" height="516" viewBox="0 0 1968 516" fill="none" xmlns="http://www.w3.org/2000/svg">
<g clip-path="url(#clip0_6_567)">
<path d="M1219.84 462.702C1222.21 460.809 1263.24 452.269 1266.82 451.323C1270.41 450.376 1286.74 435.436 1288.82 433.769C1290.9 432.102 1294.17 383.497 1294.17 381.603C1294.17 379.71 1328.65 355.057 1331.61 355.057C1334.58 355.057 1335.73 331.331 1335.73 328.491C1335.73 325.651 1340.49 317.111 1342.88 317.111C1345.27 317.111 1360.71 314.745 1363.68 312.357C1366.65 309.97 1380.94 287.231 1383.9 287.231C1386.87 287.231 1411.25 288.178 1411.25 288.178C1411.25 288.178 1417.21 317.111 1417.21 322.791C1417.21 328.47 1433.25 335.611 1435.74 339.397C1438.23 343.184 1439.24 381.562 1439.24 381.562C1439.24 381.562 1461.9 384.402 1464.8 386.789C1467.71 389.176 1472.52 408.602 1472.52 410.969C1472.52 413.335 1495.71 422.348 1498.1 424.242C1500.49 426.135 1506.34 478.301 1506.34 478.301H1188.93C1187.14 478.28 1217.46 464.595 1219.84 462.702Z" fill="#F06082"/>
<path opacity="0.4" d="M1219.84 462.702C1222.21 460.809 1263.24 452.269 1266.82 451.323C1270.41 450.376 1286.74 435.436 1288.82 433.769C1290.9 432.102 1294.17 383.497 1294.17 381.603C1294.17 379.71 1328.65 355.057 1331.61 355.057C1334.58 355.057 1335.73 331.331 1335.73 328.491C1335.73 325.651 1340.49 317.111 1342.88 317.111C1345.27 317.111 1360.71 314.745 1363.68 312.357C1366.65 309.97 1380.94 287.231 1383.9 287.231C1386.87 287.231 1411.25 288.178 1411.25 288.178C1411.25 288.178 1417.21 317.111 1417.21 322.791C1417.21 328.47 1433.25 335.611 1435.74 339.397C1438.23 343.184 1439.24 381.562 1439.24 381.562C1439.24 381.562 1461.9 384.402 1464.8 386.789C1467.71 389.176 1472.52 408.602 1472.52 410.969C1472.52 413.335 1495.71 422.348 1498.1 424.242C1500.49 426.135 1506.34 478.301 1506.34 478.301H1188.93C1187.14 478.28 1217.46 464.595 1219.84 462.702Z" fill="url(#paint0_linear_6_567)"/>
<path d="M1.35915 448.092C6.61088 442.947 226.834 364.235 230.5 362.177C234.165 360.12 245.184 354.461 246.234 349.316C247.284 344.171 260.918 290.668 259.333 283.98C257.747 277.292 258.282 259.286 258.282 257.228C258.282 255.17 266.15 240.766 266.15 239.222V169.771C266.15 161.539 263.596 144.048 263.596 141.99C263.596 139.932 272.452 128.1 274.017 128.1C275.582 128.1 292.367 136.331 293.417 139.932C294.468 143.533 298.154 154.851 298.154 154.851C297.68 157.378 296.797 159.811 295.539 162.054C292.923 167.713 299.658 241.28 298.69 247.968C297.722 254.656 301.82 279.35 302.809 283.98C303.797 288.61 313.292 296.841 313.292 296.841V229.448C313.292 217.615 311.232 93.1166 311.232 93.1166C311.232 93.1166 312.797 51.9601 314.898 47.8445C316.999 43.7288 329.047 40.1276 329.047 38.0698C329.047 36.012 341.115 33.9541 342.681 24.6939C344.246 15.4337 352.649 3.08674 358.415 4.11565C364.182 5.14457 381.482 0 385.189 0C388.896 0 416.081 10.8036 416.081 10.8036C416.081 10.8036 419.747 55.5613 421.313 55.5613C422.878 55.5613 425.432 32.4108 425.432 32.4108C425.432 32.4108 437.789 33.6866 440.631 36.5264C443.473 39.3662 449.033 83.8564 449.033 87.4576C449.033 91.0588 466.333 95.6889 467.898 98.7757C469.464 101.862 469.958 178.516 468.949 183.147C467.94 187.777 479.432 197.037 479.432 199.095C479.432 201.153 483.098 208.355 486.249 211.442C489.4 214.528 489.4 275.749 489.4 286.552C489.4 297.356 510.118 347.505 514.114 351.374C518.109 355.243 535.594 357.033 545.006 367.322C554.418 377.611 636.242 407.964 645.139 413.109C654.036 418.253 700.21 424.941 707.542 426.485C714.874 428.028 735.861 439.346 751.06 447.063C766.259 454.78 790.396 446.548 795.112 445.005C799.829 443.462 835.479 437.803 839.165 437.803C842.852 437.803 856.98 428.542 858.566 425.97C860.152 423.398 878.481 424.941 881.632 425.97C884.783 426.999 890.014 417.224 891.6 414.138C893.186 411.051 901.548 388.929 901.548 385.328C901.548 381.727 903.133 362.177 903.133 359.605C903.133 357.033 911.516 353.946 911.516 353.946C912.527 350.065 913.215 346.108 913.575 342.114C913.575 338.512 918.806 336.969 920.907 336.969C923.008 336.969 922.493 313.819 922.493 311.246C922.493 308.674 929.31 300.443 929.31 300.443C929.31 300.443 944.509 297.356 946.074 298.899C947.639 300.443 949.225 327.709 949.225 329.767C949.225 331.824 953.941 348.287 956.042 350.345C958.143 352.403 960.161 406.935 960.161 408.479C960.161 410.022 977.461 419.797 981.127 423.398C984.793 426.999 1000.01 431.629 1008.39 435.745C1016.78 439.86 1049.81 452.722 1052.96 454.265L1085.05 469.843C1098.25 471.736 1124.63 463.834 1146.5 463.834C1168.38 463.834 1218.59 464.472 1225.98 465.11C1233.37 465.748 1253.25 468.588 1262 472.107C1270.75 475.625 1296.11 489.166 1310.59 494.208C1325.06 499.249 1366.19 516.062 1368.83 516.062H7.64064C7.64064 516.062 -3.89258 453.236 1.35915 448.092Z" fill="#F06082"/>
<path opacity="0.4" d="M1.35915 448.092C6.61088 442.947 226.834 364.235 230.5 362.177C234.165 360.12 245.184 354.461 246.234 349.316C247.284 344.171 260.918 290.668 259.333 283.98C257.747 277.292 258.282 259.286 258.282 257.228C258.282 255.17 266.15 240.766 266.15 239.222V169.771C266.15 161.539 263.596 144.048 263.596 141.99C263.596 139.932 272.452 128.1 274.017 128.1C275.582 128.1 292.367 136.331 293.417 139.932C294.468 143.533 298.154 154.851 298.154 154.851C297.68 157.378 296.797 159.811 295.539 162.054C292.923 167.713 299.658 241.28 298.69 247.968C297.722 254.656 301.82 279.35 302.809 283.98C303.797 288.61 313.292 296.841 313.292 296.841V229.448C313.292 217.615 311.232 93.1166 311.232 93.1166C311.232 93.1166 312.797 51.9601 314.898 47.8445C316.999 43.7288 329.047 40.1276 329.047 38.0698C329.047 36.012 341.115 33.9541 342.681 24.6939C344.246 15.4337 352.649 3.08674 358.415 4.11565C364.182 5.14457 381.482 0 385.189 0C388.896 0 416.081 10.8036 416.081 10.8036C416.081 10.8036 419.747 55.5613 421.313 55.5613C422.878 55.5613 425.432 32.4108 425.432 32.4108C425.432 32.4108 437.789 33.6866 440.631 36.5264C443.473 39.3662 449.033 83.8564 449.033 87.4576C449.033 91.0588 466.333 95.6889 467.898 98.7757C469.464 101.862 469.958 178.516 468.949 183.147C467.94 187.777 479.432 197.037 479.432 199.095C479.432 201.153 483.098 208.355 486.249 211.442C489.4 214.528 489.4 275.749 489.4 286.552C489.4 297.356 510.118 347.505 514.114 351.374C518.109 355.243 535.594 357.033 545.006 367.322C554.418 377.611 636.242 407.964 645.139 413.109C654.036 418.253 700.21 424.941 707.542 426.485C714.874 428.028 735.861 439.346 751.06 447.063C766.259 454.78 790.396 446.548 795.112 445.005C799.829 443.462 835.479 437.803 839.165 437.803C842.852 437.803 856.98 428.542 858.566 425.97C860.152 423.398 878.481 424.941 881.632 425.97C884.783 426.999 890.014 417.224 891.6 414.138C893.186 411.051 901.548 388.929 901.548 385.328C901.548 381.727 903.133 362.177 903.133 359.605C903.133 357.033 911.516 353.946 911.516 353.946C912.527 350.065 913.215 346.108 913.575 342.114C913.575 338.512 918.806 336.969 920.907 336.969C923.008 336.969 922.493 313.819 922.493 311.246C922.493 308.674 929.31 300.443 929.31 300.443C929.31 300.443 944.509 297.356 946.074 298.899C947.639 300.443 949.225 327.709 949.225 329.767C949.225 331.824 953.941 348.287 956.042 350.345C958.143 352.403 960.161 406.935 960.161 408.479C960.161 410.022 977.461 419.797 981.127 423.398C984.793 426.999 1000.01 431.629 1008.39 435.745C1016.78 439.86 1049.81 452.722 1052.96 454.265L1085.05 469.843C1098.25 471.736 1124.63 463.834 1146.5 463.834C1168.38 463.834 1218.59 464.472 1225.98 465.11C1233.37 465.748 1253.25 468.588 1262 472.107C1270.75 475.625 1296.11 489.166 1310.59 494.208C1325.06 499.249 1366.19 516.062 1368.83 516.062H7.64064C7.64064 516.062 -3.89258 453.236 1.35915 448.092Z" fill="url(#paint1_linear_6_567)"/>
<path d="M466.333 451.528C468.681 443.297 486.928 446.425 495.764 444.532C504.599 442.638 517.533 422.863 519.304 419.035C521.075 415.208 527.542 395.473 528.119 389.732C528.695 383.99 555.778 385.287 562.265 385.287C568.753 385.287 584.034 377.632 585.805 372.549C587.576 367.466 592.272 315.856 592.272 310.814C592.272 305.772 599.027 308.592 600.51 306.987C601.993 305.381 600.51 278.959 600.51 276.407C600.51 273.855 609.922 278.959 612.867 280.235C615.812 281.511 616.698 303.488 618.16 305.073C619.622 306.657 619.334 322.276 619.334 329.293C619.334 336.311 622.876 361.766 625.224 361.766C627.572 361.766 630.517 354.131 630.517 350.942C630.517 347.752 628.746 289.207 629.94 285.976C631.025 282.646 632.832 279.596 635.233 277.045C638.178 273.855 631.691 228.007 632.865 222.904C634.039 217.8 641.7 210.166 647.59 210.804C653.481 211.442 678.771 214.631 678.771 219.714C678.771 224.797 681.716 238.235 682.89 245.828C684.064 253.421 688.183 326.083 689.357 328.655C691.609 333.474 693.003 338.648 693.476 343.945C694.671 352.855 699.655 376.747 702.311 379.607C704.968 382.468 715.842 375.142 719.385 374.504C722.927 373.866 722.33 385.986 726.449 390.431C728.302 392.489 771.758 408.952 776.453 410.187C781.149 411.421 809.406 419.097 815.296 420.373C821.186 421.649 878.584 466.345 878.584 466.345L916.376 484.083C916.376 484.083 411.262 485.997 413.033 484.083C414.805 482.169 463.986 459.883 466.333 451.528Z" fill="#F06082"/>
<path opacity="0.4" d="M466.333 451.528C468.681 443.297 486.928 446.425 495.764 444.532C504.599 442.638 517.533 422.863 519.304 419.035C521.075 415.208 527.542 395.473 528.119 389.732C528.695 383.99 555.778 385.287 562.265 385.287C568.753 385.287 584.034 377.632 585.805 372.549C587.576 367.466 592.272 315.856 592.272 310.814C592.272 305.772 599.027 308.592 600.51 306.987C601.993 305.381 600.51 278.959 600.51 276.407C600.51 273.855 609.922 278.959 612.867 280.235C615.812 281.511 616.698 303.488 618.16 305.073C619.622 306.657 619.334 322.276 619.334 329.293C619.334 336.311 622.876 361.766 625.224 361.766C627.572 361.766 630.517 354.131 630.517 350.942C630.517 347.752 628.746 289.207 629.94 285.976C631.025 282.646 632.832 279.596 635.233 277.045C638.178 273.855 631.691 228.007 632.865 222.904C634.039 217.8 641.7 210.166 647.59 210.804C653.481 211.442 678.771 214.631 678.771 219.714C678.771 224.797 681.716 238.235 682.89 245.828C684.064 253.421 688.183 326.083 689.357 328.655C691.609 333.474 693.003 338.648 693.476 343.945C694.671 352.855 699.655 376.747 702.311 379.607C704.968 382.468 715.842 375.142 719.385 374.504C722.927 373.866 722.33 385.986 726.449 390.431C728.302 392.489 771.758 408.952 776.453 410.187C781.149 411.421 809.406 419.097 815.296 420.373C821.186 421.649 878.584 466.345 878.584 466.345L916.376 484.083C916.376 484.083 411.262 485.997 413.033 484.083C414.805 482.169 463.986 459.883 466.333 451.528Z" fill="url(#paint2_linear_6_567)"/>
<path d="M1454.69 429.139L1467.95 401.112L1474.4 396.09L1481.34 363.042C1483.98 361.387 1486.74 359.909 1489.58 358.617C1490.42 358.617 1497.71 352.814 1499.26 352.814C1500.8 352.814 1506.69 344.46 1505.85 342.525C1505 340.591 1506.69 328.12 1506.69 328.12C1506.69 328.12 1517.5 321.659 1520.72 318.037C1523.93 314.415 1521.85 301.039 1521.85 295.401C1521.85 289.763 1521.15 282.025 1521.85 281.243C1524.62 279.169 1527.93 277.959 1531.39 277.765C1534.76 278.095 1549.78 279.185 1550.74 280.297C1551.71 281.408 1553.55 307.686 1553.83 309.559C1555.73 314.29 1558.08 318.825 1560.86 323.099C1561.82 324.211 1565.61 328.45 1565.61 329.396C1565.61 329.828 1566.03 337.895 1566.52 346.785C1569.2 344.912 1570.95 343.348 1570.95 342.422C1570.95 338.307 1577.6 304.661 1581.76 300.566C1585.92 296.471 1617.55 291.532 1617.55 291.532C1617.55 291.532 1619.22 225.064 1622.54 218.5C1625.85 211.936 1648.34 199.609 1648.34 189.69C1648.34 179.772 1656.58 129.787 1656.58 129.787C1656.58 129.787 1690.71 128.141 1694.89 128.141C1699.07 128.141 1719.01 167.548 1723.17 171.664C1727.33 175.78 1748.97 179.895 1752.29 179.895C1755.6 179.895 1762.28 194.67 1762.28 199.589C1762.28 204.507 1763.94 245.56 1768.1 245.56C1772.26 245.56 1820.54 288.219 1820.54 291.512C1820.54 294.804 1825.13 378.908 1828.04 381.789C1830.94 384.669 1853.84 410.598 1858.93 412.141C1864.02 413.685 1921.35 428.604 1924.67 431.835C1927.98 435.066 1970.45 458.916 1967.92 458.916H1523.39C1523.39 458.916 1524.61 445.684 1526.3 429.16L1454.69 429.139Z" fill="#F06082"/>
<path opacity="0.4" d="M1454.69 429.139L1467.95 401.112L1474.4 396.09L1481.34 363.042C1483.98 361.387 1486.74 359.909 1489.58 358.617C1490.42 358.617 1497.71 352.814 1499.26 352.814C1500.8 352.814 1506.69 344.46 1505.85 342.525C1505 340.591 1506.69 328.12 1506.69 328.12C1506.69 328.12 1517.5 321.659 1520.72 318.037C1523.93 314.415 1521.85 301.039 1521.85 295.401C1521.85 289.763 1521.15 282.025 1521.85 281.243C1524.62 279.169 1527.93 277.959 1531.39 277.765C1534.76 278.095 1549.78 279.185 1550.74 280.297C1551.71 281.408 1553.55 307.686 1553.83 309.559C1555.73 314.29 1558.08 318.825 1560.86 323.099C1561.82 324.211 1565.61 328.45 1565.61 329.396C1565.61 329.828 1566.03 337.895 1566.52 346.785C1569.2 344.912 1570.95 343.348 1570.95 342.422C1570.95 338.307 1577.6 304.661 1581.76 300.566C1585.92 296.471 1617.55 291.532 1617.55 291.532C1617.55 291.532 1619.22 225.064 1622.54 218.5C1625.85 211.936 1648.34 199.609 1648.34 189.69C1648.34 179.772 1656.58 129.787 1656.58 129.787C1656.58 129.787 1690.71 128.141 1694.89 128.141C1699.07 128.141 1719.01 167.548 1723.17 171.664C1727.33 175.78 1748.97 179.895 1752.29 179.895C1755.6 179.895 1762.28 194.67 1762.28 199.589C1762.28 204.507 1763.94 245.56 1768.1 245.56C1772.26 245.56 1820.54 288.219 1820.54 291.512C1820.54 294.804 1825.13 378.908 1828.04 381.789C1830.94 384.669 1853.84 410.598 1858.93 412.141C1864.02 413.685 1921.35 428.604 1924.67 431.835C1927.98 435.066 1970.45 458.916 1967.92 458.916H1523.39C1523.39 458.916 1524.61 445.684 1526.3 429.16L1454.69 429.139Z" fill="url(#paint3_linear_6_567)"/>
</g>
<defs>
<linearGradient id="paint0_linear_6_567" x1="1347.64" y1="478.342" x2="1347.64" y2="287.231" gradientUnits="userSpaceOnUse">
<stop stop-color="#FFAFB6"/>
<stop offset="0.03" stop-color="#FFB5BB" stop-opacity="0.93"/>
<stop offset="0.16" stop-color="#FFCBCF" stop-opacity="0.65"/>
<stop offset="0.28" stop-color="#FFDDE0" stop-opacity="0.42"/>
<stop offset="0.38" stop-color="#FFECEE" stop-opacity="0.24"/>
<stop offset="0.48" stop-color="#FFF6F7" stop-opacity="0.11"/>
<stop offset="0.56" stop-color="#FFFDFD" stop-opacity="0.03"/>
<stop offset="0.61" stop-color="white" stop-opacity="0"/>
</linearGradient>
<linearGradient id="paint1_linear_6_567" x1="684.373" y1="516" x2="684.373" y2="0" gradientUnits="userSpaceOnUse">
<stop stop-color="white"/>
<stop offset="0.01" stop-color="white" stop-opacity="0.95"/>
<stop offset="0.07" stop-color="white" stop-opacity="0.75"/>
<stop offset="0.13" stop-color="white" stop-opacity="0.57"/>
<stop offset="0.19" stop-color="white" stop-opacity="0.42"/>
<stop offset="0.26" stop-color="white" stop-opacity="0.29"/>
<stop offset="0.33" stop-color="white" stop-opacity="0.18"/>
<stop offset="0.4" stop-color="white" stop-opacity="0.1"/>
<stop offset="0.49" stop-color="white" stop-opacity="0.04"/>
<stop offset="0.59" stop-color="white" stop-opacity="0.01"/>
<stop offset="0.75" stop-color="white" stop-opacity="0"/>
</linearGradient>
<linearGradient id="paint2_linear_6_567" x1="664.705" y1="484.927" x2="664.705" y2="210.763" gradientUnits="userSpaceOnUse">
<stop stop-color="white"/>
<stop offset="0.03" stop-color="white" stop-opacity="0.89"/>
<stop offset="0.08" stop-color="white" stop-opacity="0.71"/>
<stop offset="0.15" stop-color="white" stop-opacity="0.54"/>
<stop offset="0.21" stop-color="white" stop-opacity="0.39"/>
<stop offset="0.28" stop-color="white" stop-opacity="0.27"/>
<stop offset="0.35" stop-color="white" stop-opacity="0.17"/>
<stop offset="0.44" stop-color="white" stop-opacity="0.09"/>
<stop offset="0.53" stop-color="white" stop-opacity="0.04"/>
<stop offset="0.65" stop-color="white" stop-opacity="0.01"/>
<stop offset="0.86" stop-color="white" stop-opacity="0"/>
</linearGradient>
<linearGradient id="paint3_linear_6_567" x1="1711.32" y1="458.895" x2="1711.32" y2="177.158" gradientUnits="userSpaceOnUse">
<stop stop-color="#FFAFB6"/>
<stop offset="0.03" stop-color="#FFB5BB" stop-opacity="0.93"/>
<stop offset="0.16" stop-color="#FFCBCF" stop-opacity="0.65"/>
<stop offset="0.28" stop-color="#FFDDE0" stop-opacity="0.42"/>
<stop offset="0.38" stop-color="#FFECEE" stop-opacity="0.24"/>
<stop offset="0.48" stop-color="#FFF6F7" stop-opacity="0.11"/>
<stop offset="0.56" stop-color="#FFFDFD" stop-opacity="0.03"/>
<stop offset="0.61" stop-color="white" stop-opacity="0"/>
</linearGradient>
<clipPath id="clip0_6_567">
<rect width="1968" height="516" fill="white"/>
</clipPath>
</defs>
</svg>
