<svg width="977" height="220" viewBox="0 0 977 220" xmlns="http://www.w3.org/2000/svg">
<path d="M93.7645 85.5C67.3645 80.7 57.1645 76.2 57.1645 65.7C57.1645 56.1 66.7645 48.3 84.7645 48.3C98.2645 48.3 110.264 50.7 120.164 55.8C128.264 59.1 134.264 60.9 138.464 60.9C151.664 60.9 161.864 50.4 161.864 37.2C161.864 29.1 159.164 22.8 153.764 18C141.464 7.19999 115.364 0.299988 85.0645 0.299988C62.5645 0.299988 43.6645 6.29998 28.3645 18.6C13.3645 30.6 5.86445 46.2 5.86445 65.4C5.86445 102.9 27.1645 121.5 78.4645 132.3C90.7645 135 98.5645 136.8 102.164 138C114.464 141.6 120.764 146.7 120.764 153.3C120.764 164.4 109.364 171 91.0645 171C73.3645 171 57.7645 166.2 44.8645 156.9C38.5645 152.1 32.5645 149.7 26.2645 149.7C11.8645 149.7 0.764453 161.1 0.764453 175.8C0.764453 184.2 4.96445 191.7 13.6645 198C31.9645 212.7 56.5645 219.9 86.8645 219.9C112.964 219.9 133.664 213.6 148.964 201C164.264 188.1 172.064 172.2 172.064 153C172.064 115.8 147.764 95.4 93.7645 85.5ZM237.91 3.29998C216.01 3.29998 202.81 17.7 202.81 37.2V181.5C202.81 201 216.01 216 237.91 216H334.81C348.31 216 359.11 205.8 359.11 192.3C359.11 180 347.71 168.9 334.81 168.9H253.81V131.1H322.81C336.01 131.1 345.61 121.2 345.61 109.2C345.61 96 336.91 87.6 322.81 87.6H253.81V50.1H334.21C347.11 50.1 358.51 39.3 358.51 26.4C358.51 13.2 347.71 3.29998 334.21 3.29998H237.91ZM466.468 25.5C458.668 10.8 446.368 3.29998 429.568 3.29998C418.768 3.29998 409.768 7.19999 402.568 15.3C395.668 23.1 392.068 32.7 392.068 43.8V191.7C392.068 205.8 404.068 217.8 417.568 217.8C431.968 217.8 442.468 206.1 442.468 191.7V142.2C442.468 117.9 441.268 93.3 438.868 68.4L439.768 68.1L508.468 196.5C515.668 210.6 527.968 217.8 545.068 217.8C566.968 217.8 582.268 200.1 582.268 178.2V29.4C582.268 14.7 571.468 3.29998 556.768 3.29998C542.668 3.29998 531.268 15 531.268 29.4V68.1C531.268 100.5 532.468 128.1 534.568 151.2L533.668 151.5V151.2L466.468 25.5ZM611.855 180.9C623.855 204.6 648.155 219.9 678.455 219.9C699.455 219.9 717.155 212.7 731.555 198C745.955 183.3 753.155 164.7 753.155 141.9V29.4C753.155 15 742.055 3.29998 727.655 3.29998C714.155 3.29998 702.455 15 702.455 29.4V145.2C702.455 162 692.255 171.3 679.355 171.3C669.455 171.3 661.055 166.5 654.455 156.6C648.455 147.9 640.955 143.4 631.955 143.4C618.755 143.4 608.855 154.5 608.855 167.4C608.855 171.9 609.755 176.4 611.855 180.9ZM976.777 191.1C976.777 188.4 976.177 185.4 975.277 182.4L922.477 33.3C914.377 11.4 899.377 0.299988 877.177 0.299988C855.277 0.299988 840.277 11.4 832.177 33.3L778.477 182.4C777.577 185.7 776.977 188.7 776.977 191.4C776.977 204.9 786.877 217.2 801.577 217.2C812.077 217.2 821.377 210.9 825.277 201L838.177 162.6H915.577L928.477 201C931.777 210.6 941.377 216.9 951.877 216.9C966.577 216.9 976.777 204.6 976.777 191.1ZM874.477 55.5C875.377 52.2 878.977 52.2 880.177 55.5L901.177 119.4H852.877L874.477 55.5Z" fill="#3B0017"/>
</svg>
