<svg width="150" height="88" viewBox="0 0 150 88" fill="none" xmlns="http://www.w3.org/2000/svg">
<path d="M22.4646 57.38C20.1086 57.38 18.1326 57.038 16.5366 56.354C14.9659 55.6447 13.7626 54.7327 12.9266 53.618C12.1159 52.478 11.6853 51.2873 11.6346 50.046C11.6346 49.818 11.7106 49.628 11.8626 49.476C12.0146 49.324 12.2046 49.248 12.4326 49.248H15.8146C16.1439 49.248 16.3846 49.324 16.5366 49.476C16.7139 49.6027 16.8659 49.7673 16.9926 49.97C17.1446 50.4513 17.4359 50.9327 17.8666 51.414C18.2973 51.87 18.8799 52.25 19.6146 52.554C20.3746 52.858 21.3246 53.01 22.4646 53.01C24.2886 53.01 25.6439 52.706 26.5306 52.098C27.4426 51.49 27.8986 50.6667 27.8986 49.628C27.8986 48.8933 27.6579 48.3107 27.1766 47.88C26.6953 47.424 25.9479 47.0187 24.9346 46.664C23.9466 46.284 22.6293 45.8913 20.9826 45.486C19.0826 45.03 17.4866 44.4853 16.1946 43.852C14.9279 43.1933 13.9653 42.37 13.3066 41.382C12.6733 40.394 12.3566 39.14 12.3566 37.62C12.3566 36.1507 12.7493 34.846 13.5346 33.706C14.3453 32.566 15.4853 31.6667 16.9546 31.008C18.4493 30.3493 20.2226 30.02 22.2746 30.02C23.9213 30.02 25.3779 30.248 26.6446 30.704C27.9113 31.1347 28.9626 31.7173 29.7986 32.452C30.6346 33.1613 31.2679 33.934 31.6986 34.77C32.1546 35.5807 32.3953 36.3787 32.4206 37.164C32.4206 37.3667 32.3446 37.5567 32.1926 37.734C32.0659 37.886 31.8759 37.962 31.6226 37.962H28.0886C27.8859 37.962 27.6833 37.9113 27.4806 37.81C27.2779 37.7087 27.1133 37.5187 26.9866 37.24C26.8346 36.4547 26.3406 35.7833 25.5046 35.226C24.6686 34.6687 23.5919 34.39 22.2746 34.39C20.9066 34.39 19.8046 34.6433 18.9686 35.15C18.1326 35.6567 17.7146 36.442 17.7146 37.506C17.7146 38.2153 17.9173 38.8107 18.3226 39.292C18.7533 39.748 19.4246 40.1533 20.3366 40.508C21.2739 40.8627 22.5026 41.2427 24.0226 41.648C26.1759 42.1293 27.9366 42.6867 29.3046 43.32C30.6726 43.9533 31.6733 44.764 32.3066 45.752C32.9399 46.7147 33.2566 47.9433 33.2566 49.438C33.2566 51.11 32.8006 52.5413 31.8886 53.732C31.0019 54.8973 29.7479 55.7967 28.1266 56.43C26.5053 57.0633 24.6179 57.38 22.4646 57.38ZM38.5235 57C38.2701 57 38.0548 56.9113 37.8775 56.734C37.7001 56.5567 37.6115 56.3413 37.6115 56.088V31.35C37.6115 31.0713 37.7001 30.8433 37.8775 30.666C38.0548 30.4887 38.2701 30.4 38.5235 30.4H55.2435C55.5221 30.4 55.7501 30.4887 55.9275 30.666C56.1048 30.8433 56.1935 31.0713 56.1935 31.35V33.858C56.1935 34.1113 56.1048 34.3267 55.9275 34.504C55.7501 34.6813 55.5221 34.77 55.2435 34.77H42.7415V41.496H54.4075C54.6861 41.496 54.9141 41.5847 55.0915 41.762C55.2688 41.914 55.3575 42.1293 55.3575 42.408V44.764C55.3575 45.0427 55.2688 45.2707 55.0915 45.448C54.9141 45.6 54.6861 45.676 54.4075 45.676H42.7415V52.63H55.5475C55.8261 52.63 56.0541 52.7187 56.2315 52.896C56.4088 53.0733 56.4975 53.3013 56.4975 53.58V56.088C56.4975 56.3413 56.4088 56.5567 56.2315 56.734C56.0541 56.9113 55.8261 57 55.5475 57H38.5235ZM62.1621 57C61.9088 57 61.6935 56.9113 61.5161 56.734C61.3388 56.5567 61.2501 56.3413 61.2501 56.088V31.35C61.2501 31.0713 61.3388 30.8433 61.5161 30.666C61.6935 30.4887 61.9088 30.4 62.1621 30.4H65.0881C65.4428 30.4 65.6961 30.4887 65.8481 30.666C66.0255 30.818 66.1395 30.932 66.1901 31.008L77.1341 48.032V31.35C77.1341 31.0713 77.2101 30.8433 77.3621 30.666C77.5395 30.4887 77.7675 30.4 78.0461 30.4H81.2381C81.5168 30.4 81.7448 30.4887 81.9221 30.666C82.0995 30.8433 82.1881 31.0713 82.1881 31.35V56.05C82.1881 56.3287 82.0995 56.5567 81.9221 56.734C81.7448 56.9113 81.5295 57 81.2761 57H78.3121C77.9575 57 77.7041 56.9113 77.5521 56.734C77.4001 56.5567 77.2861 56.4427 77.2101 56.392L66.3041 39.748V56.088C66.3041 56.3413 66.2155 56.5567 66.0381 56.734C65.8608 56.9113 65.6328 57 65.3541 57H62.1621Z" fill="white"/>
<path d="M96.7053 57.38C95.3373 57.38 94.0327 57.2153 92.7913 56.886C91.5753 56.5313 90.486 55.9993 89.5233 55.29C88.5607 54.5807 87.788 53.7067 87.2053 52.668C86.648 51.6293 86.3567 50.4007 86.3313 48.982C86.3313 48.754 86.4073 48.564 86.5593 48.412C86.7113 48.2347 86.9013 48.146 87.1293 48.146H90.7393C91.0687 48.146 91.3093 48.2347 91.4613 48.412C91.6387 48.5893 91.778 48.83 91.8793 49.134C92.006 50.046 92.2973 50.7933 92.7533 51.376C93.2093 51.9333 93.7793 52.3513 94.4633 52.63C95.1727 52.8833 95.958 53.01 96.8193 53.01C98.4153 53.01 99.6313 52.4907 100.467 51.452C101.329 50.4133 101.759 48.9693 101.759 47.12V34.884H88.8773C88.5987 34.884 88.3707 34.7953 88.1933 34.618C88.0413 34.4407 87.9653 34.2253 87.9653 33.972V31.312C87.9653 31.0587 88.0413 30.8433 88.1933 30.666C88.3707 30.4887 88.5987 30.4 88.8773 30.4H106.243C106.522 30.4 106.75 30.4887 106.927 30.666C107.105 30.8433 107.193 31.0713 107.193 31.35V47.272C107.193 49.3747 106.75 51.186 105.863 52.706C105.002 54.226 103.786 55.3913 102.215 56.202C100.67 56.9873 98.8333 57.38 96.7053 57.38ZM110.716 57C110.513 57 110.323 56.924 110.146 56.772C109.994 56.62 109.918 56.43 109.918 56.202C109.918 56.1007 109.943 55.9867 109.994 55.86L119.152 31.35C119.228 31.0967 119.367 30.8813 119.57 30.704C119.798 30.5013 120.102 30.4 120.482 30.4H124.624C125.004 30.4 125.295 30.5013 125.498 30.704C125.7 30.8813 125.852 31.0967 125.954 31.35L135.112 55.86C135.137 55.9867 135.15 56.1007 135.15 56.202C135.15 56.43 135.074 56.62 134.922 56.772C134.77 56.924 134.592 57 134.39 57H131.084C130.729 57 130.463 56.924 130.286 56.772C130.134 56.5947 130.032 56.43 129.982 56.278L128.196 51.642H116.91L115.124 56.278C115.073 56.43 114.959 56.5947 114.782 56.772C114.63 56.924 114.376 57 114.022 57H110.716ZM118.24 47.272H126.866L122.534 35.53L118.24 47.272Z" fill="#3B0017"/>
<path d="M146.017 26.8133C144.944 23.982 142.209 21.9688 139.005 21.9688C135.801 21.9688 133.066 23.9797 131.992 26.8109C129.984 27.3383 128.5 29.1664 128.5 31.3438C128.5 33.9336 130.598 36.0312 133.185 36.0312H144.815C147.402 36.0312 149.5 33.9336 149.5 31.3438C149.5 29.1711 148.021 27.343 146.017 26.8133Z" fill="#3B0017"/>
</svg>
